Coordinates
version=1
nRows=12
nColumns=24
inDegrees=yes

Units are S.I. units (second, meters, Newtons, ...)
Angles are in degrees.

endheader
time	pelvis_tilt	pelvis_list	pelvis_rotation	pelvis_tx	pelvis_ty	pelvis_tz	hip_flexion_r	hip_adduction_r	hip_rotation_r	knee_angle_r	ankle_angle_r	subtalar_angle_r	mtp_angle_r	hip_flexion_l	hip_adduction_l	hip_rotation_l	knee_angle_l	ankle_angle_l	subtalar_angle_l	mtp_angle_l	lumbar_extension	lumbar_bending	lumbar_rotation
      1.10850000	     -1.98153734	      2.87234872	     -2.36773368	      0.11077391	      1.05945217	      0.34269216	     22.98377788	     -2.72906055	     -1.97216915	    -68.40790241	      1.62753230	    -11.84674938	      0.99742532	     13.46888559	      6.31124908	     -8.02166815	    -15.29577285	      7.22031796	      5.09901058	      0.98380810	      6.71660011	     -1.00961815	     -2.16430634
      1.11266667	     -1.98991714	      2.84353406	     -2.38347181	      0.11573963	      1.06008431	      0.34243822	     23.53043707	     -2.60255467	     -1.70599501	    -68.07385940	      2.07947199	    -12.25356850	      0.95364643	     13.10945379	      6.33168450	     -7.93001040	    -15.15015231	      7.35402430	      5.14313812	      0.96361537	      6.69400589	     -0.88923820	     -2.21636441
      1.11683333	     -2.01476059	      2.78439125	     -2.37321679	      0.12069515	      1.06070285	      0.34232432	     24.06263869	     -2.42635796	     -1.46761247	    -67.65926686	      2.63006106	    -12.75059123	      0.90274232	     12.77902525	      6.30354839	     -7.88641996	    -15.04035567	      7.51749408	      5.13564310	      0.93896939	      6.68465378	     -0.82150646	     -2.25609886
      1.12100000	     -2.03435797	      2.71986208	     -2.36438854	      0.12564815	      1.06130920	      0.34216617	     24.56914720	     -2.24740358	     -1.22823462	    -67.16926454	      3.09899058	    -13.20952341	      0.84843751	     12.43952301	      6.27465899	     -7.82605434	    -14.92148765	      7.66451934	      5.13068461	      0.91205998	      6.67063878	     -0.74056526	     -2.29261586
      1.12516667	     -2.06760073	      2.66233829	     -2.36176058	      0.13060172	      1.06186984	      0.34202459	     25.07387087	     -2.07037569	     -0.98192369	    -66.61511799	      3.55122873	    -13.67124500	      0.79174176	     12.11170865	      6.25488914	     -7.74973856	    -14.79044575	      7.81049022	      5.10853019	      0.88354287	      6.66763931	     -0.65812858	     -2.32444276
      1.12933333	     -2.08810219	      2.59662168	     -2.35831174	      0.13555249	      1.06244286	      0.34188201	     25.53932609	     -1.88405249	     -0.73824708	    -65.98323323	      3.97239322	    -14.12956977	      0.73128031	     11.76893633	      6.22649011	     -7.67409321	    -14.65673244	      7.95068127	      5.06971328	      0.85263349	      6.66278477	     -0.57653123	     -2.35191527
      1.13350000	     -2.11617687	      2.53677568	     -2.36134435	      0.14051538	      1.06298056	      0.34177848	     25.99198721	     -1.69547123	     -0.48440828	    -65.28691114	      4.35509629	    -14.57343930	      0.67031050	     11.42920548	      6.20314438	     -7.58376218	    -14.51524588	      8.08475674	      5.01793486	      0.82137651	      6.65342500	     -0.49016360	     -2.37638909
      1.13766667	     -2.14819814	      2.48223837	     -2.36858498	      0.14546641	      1.06347445	      0.34167105	     26.43096677	     -1.51166325	     -0.22691185	    -64.52988039	      4.71790823	    -15.02752415	      0.60646992	     11.09281278	      6.18624789	     -7.49329742	    -14.36597497	      8.21720212	      4.94983169	      0.78850538	      6.65391469	     -0.41332377	     -2.39501190
      1.14183333	     -2.16968802	      2.42287848	     -2.37603925	      0.15042295	      1.06396422	      0.34158159	     26.83269665	     -1.32150752	      0.02750424	    -63.70232540	      5.04671518	    -15.48569382	      0.53860952	     10.74279843	      6.16591386	     -7.39421500	    -14.21161633	      8.34882569	      4.86430814	      0.75349509	      6.65098681	     -0.33615006	     -2.41033677
      1.14600000	     -2.20510997	      2.37120164	     -2.38424843	      0.15538765	      1.06440714	      0.34151333	     27.22550779	     -1.13692113	      0.28585557	    -62.80997776	      5.33621107	    -15.94467060	      0.46726141	     10.40467479	      6.15225487	     -7.28790995	    -14.05209313	      8.47308895	      4.76711633	      0.71662951	      6.65351933	     -0.26120752	     -2.42233970
      1.15016667	     -2.24604885	      2.30792513	     -2.35939191	      0.16028947	      1.06479955	      0.34148016	     27.60137255	     -0.94446217	      0.50507828	    -61.85464689	      5.55913504	    -16.57500034	      0.33574341	     10.08880723	      6.12336958	     -7.19227038	    -13.92411562	      8.60939581	      4.59912707	      0.64673063	      6.58053232	     -0.19914965	     -2.42560776
      1.15433333	     -2.26803549	      2.27855816	     -2.40243831	      0.16529859	      1.06519971	      0.34141746	     27.93591033	     -0.77701271	      0.80402861	    -60.83904195	      5.73911038	    -16.87509747	      0.27590059	      9.71409304	      6.14165067	     -7.04347026	    -13.71198637	      8.69233227	      4.53635940	      0.61581095	      6.63971501	     -0.15384540	     -2.43348914
